HIERARCHY
ROOT Hips
{
	OFFSET -3.958830 18.904000 13.208200
	CHANNELS 6 Xposition Yposition Zposition Zrotation Yrotation Xrotation 
	JOINT LHipJoint
	{
		OFFSET 0.000000 0.000000 0.000000
		CHANNELS 3 Zrotation Yrotation Xrotation
		JOINT LeftUpLeg
		{
			OFFSET 1.800000 -1.400000 0.085000
			CHANNELS 3 Zrotation Yrotation Xrotation
			JOINT LeftLeg
			{
				OFFSET 2.215000 -6.000000 0.000000
				CHANNELS 3 Zrotation Yrotation Xrotation
				JOINT LeftFoot
				{
					OFFSET 2.500000 -6.900000 0.000000
					CHANNELS 3 Zrotation Yrotation Xrotation
					JOINT LeftToeBase
					{
						OFFSET 0.200000 -0.500000 1.950000
						CHANNELS 3 Zrotation Yrotation Xrotation
						End Site
						{
							OFFSET 0.000000 0.000000 0.000000
						}
					}
				}
			}
		}
	}
	JOINT RHipJoint
	{
		OFFSET 0.000000 0.000000 0.000000
		CHANNELS 3 Zrotation Yrotation Xrotation
		JOINT RightUpLeg
		{
			OFFSET -1.800000 -1.400000 0.085000
			CHANNELS 3 Zrotation Yrotation Xrotation
			JOINT RightLeg
			{
				OFFSET -2.215000 -6.000000 0.000000
				CHANNELS 3 Zrotation Yrotation Xrotation
				JOINT RightFoot
				{
					OFFSET -2.500000 -6.900000 0.000000
					CHANNELS 3 Zrotation Yrotation Xrotation
					JOINT RightToeBase
					{
						OFFSET -0.200000 -0.500000 1.950000
						CHANNELS 3 Zrotation Yrotation Xrotation
						End Site
						{
							OFFSET 0.000000 0.000000 0.000000
						}
					}
				}
			}
		}
	}
	JOINT LowerBack
	{
		OFFSET 0.000000 0.000000 0.000000
		CHANNELS 3 Zrotation Yrotation Xrotation
		JOINT Spine
		{
			OFFSET -0.087000 1.940000 -0.288900
			CHANNELS 3 Zrotation Yrotation Xrotation
			JOINT Spine1
			{
				OFFSET 0.000000 1.950000 0.060000
				CHANNELS 3 Zrotation Yrotation Xrotation
				JOINT Neck
				{
					OFFSET 0.000000 0.000000 0.000000
					CHANNELS 3 Zrotation Yrotation Xrotation
					JOINT Neck1
					{
						OFFSET 0.000000 1.600000 0.340000
						CHANNELS 3 Zrotation Yrotation Xrotation
						JOINT Head
						{
							OFFSET 0.000000 1.667000 -0.240000
							CHANNELS 3 Zrotation Yrotation Xrotation
							End Site
							{
								OFFSET 0.000000 0.000000 0.000000
							}
						}
					}
				}
				JOINT LeftShoulder
				{
					OFFSET 0.000000 0.000000 0.000000
					CHANNELS 3 Zrotation Yrotation Xrotation
					JOINT LeftArm
					{
						OFFSET 2.700000 1.550000 -0.730000
						CHANNELS 3 Zrotation Yrotation Xrotation
						JOINT LeftForeArm
						{
							OFFSET 5.450000 0.000000 0.000000
							CHANNELS 3 Zrotation Yrotation Xrotation
							JOINT LeftHand
							{
								OFFSET 3.450000 0.000000 0.000000
								CHANNELS 3 Zrotation Yrotation Xrotation
								JOINT LeftHandIndex1
								{
									OFFSET 0.750000 0.000000 0.000000
									CHANNELS 3 Zrotation Yrotation Xrotation
									End Site
									{
										OFFSET 0.000000 0.000000 0.000000
									}
								}
							}
						}
					}
				}
				JOINT RightShoulder
				{
					OFFSET 0.000000 0.000000 0.000000
					CHANNELS 3 Zrotation Yrotation Xrotation
					JOINT RightArm
					{
						OFFSET -2.700000 1.550000 -0.730000
						CHANNELS 3 Zrotation Yrotation Xrotation
						JOINT RightForeArm
						{
							OFFSET -5.450000 0.000000 0.000000
							CHANNELS 3 Zrotation Yrotation Xrotation
							JOINT RightHand
							{
								OFFSET -3.450000 0.000000 0.000000
								CHANNELS 3 Zrotation Yrotation Xrotation
								JOINT RightHandIndex1
								{
									OFFSET -0.750000 0.000000 0.000000
									CHANNELS 3 Zrotation Yrotation Xrotation
									End Site
									{
										OFFSET 0.000000 0.000000 0.000000
									}
								}
							}
						}
					}
				}
			}
		}
	}
}
MOTION
Frames: 8
Frame Time: 0.016667
-0.156250 15.919640 -1.694050 9.311581 -16.411509 1.360589 -15.921683 11.413566 5.095152 16.148838 -10.276649 -43.195890 -10.900266 15.717966 54.641758 0.537598 11.088275 0.580746 0.400340 -0.028960 0.397910 18.224089 -6.354177 5.066367 -28.152938 3.330953 -59.697567 -2.936376 -13.230495 58.197896 -1.281102 -8.845436 1.338337 -0.152970 0.025030 0.278400 -2.682190 -6.031775 -9.815777 40.724922 -16.170657 55.813842 7.929946 0.547532 3.998672 1.244829 -2.621377 -16.224609 -11.867468 -1.847104 60.709058 -0.292840 -5.070560 -18.582510 6.750063 -25.263843 4.987840 12.900975 0.624160 -9.622786 -157.830236 -70.801607 144.152879 -2.550468 3.775819 0.935760 -0.122030 0.207960 0.044420 -8.443338 29.484420 8.188113 16.836951 12.782891 -19.853958 9.211137 66.331268 3.504480 1.426131 -1.477183 -0.123790 0.205130 0.096700 -0.305660 
-0.161380 15.938140 -1.671210 9.577943 -15.823050 0.700419 -15.894376 11.565429 5.018261 15.443994 -10.158698 -42.197933 -10.695513 15.540929 54.328242 0.556017 10.974417 0.628296 0.380450 -0.038910 0.379940 18.214306 -6.501371 4.977099 -28.369735 3.216795 -58.490897 -2.971982 -13.114918 57.887203 -1.260010 -8.783678 1.365972 -0.169760 0.028500 0.267760 -2.673820 -6.046147 -9.750098 41.438222 -15.953615 55.133079 7.853542 0.792335 3.883641 1.157280 -2.442623 -16.502803 -11.657558 -2.351411 60.709615 -0.455570 -5.479560 -17.677520 6.579000 -25.547181 4.980555 13.891016 0.709977 -9.360294 -157.956209 -70.903088 144.856109 -2.552380 3.792103 0.914740 -0.119490 0.203240 0.046790 -8.083005 29.676575 8.571117 17.414104 12.025171 -20.159318 7.780644 66.477399 2.612624 1.430523 -1.476039 -0.115360 0.203830 0.095660 -0.292790 
-0.162400 15.956480 -1.642340 9.833631 -15.585348 -0.202992 -15.855511 11.730255 4.889068 14.692798 -9.824260 -40.756886 -10.394502 15.412274 54.028093 0.565648 10.887612 0.683938 0.384350 -0.029370 0.382080 18.210484 -6.684468 4.897613 -28.491508 3.343884 -57.276024 -3.119344 -12.889145 57.847794 -1.255000 -8.756444 1.397115 -0.165240 0.047000 0.258730 -2.691633 -5.975952 -9.668772 41.902475 -15.476984 54.503861 7.831417 0.802136 4.266073 1.069376 -2.125012 -16.556068 -10.755976 -3.172815 59.873874 -1.478710 -5.471470 -16.760980 6.819851 -25.586455 5.057058 14.612045 1.242247 -9.103328 -158.794827 -70.511087 145.821113 -2.549150 3.821919 0.891920 -0.101170 0.194970 0.070840 -8.198785 29.591171 8.715202 18.144667 12.043186 -20.270566 5.455955 65.873850 1.150723 1.420285 -1.465567 -0.117340 0.224810 0.079110 -0.284530 
-0.169710 15.978200 -1.608660 10.310112 -15.787768 -1.437110 -15.816558 11.958888 4.708985 13.801392 -9.267045 -38.719646 -10.246682 15.367640 53.352904 0.540620 10.774787 0.728675 0.387270 -0.025280 0.396960 18.195113 -6.888528 4.817448 -28.543481 3.745978 -55.945995 -3.547261 -12.328043 57.856992 -1.242893 -8.687849 1.416063 -0.150420 0.047750 0.251330 -2.688835 -5.937598 -9.570401 41.770354 -14.650819 54.336298 7.946384 0.854254 4.748679 1.076599 -1.770516 -16.529062 -9.761813 -3.956093 59.080429 -2.772500 -5.237850 -16.369430 6.804764 -25.670996 5.064477 15.386624 1.522782 -8.840283 -158.321208 -69.779154 144.548664 -2.551951 3.825642 0.884780 -0.091920 0.191600 0.073200 -8.245124 29.620859 8.798336 18.563477 12.329062 -20.236793 3.743813 64.656786 0.116409 1.415372 -1.451931 -0.130290 0.239470 0.073990 -0.292480 
-0.176900 15.998080 -1.570190 10.576390 -15.522199 -2.245884 -15.782907 12.128691 4.570692 13.105100 -8.750182 -37.300846 -9.894947 15.258166 52.863602 0.486340 10.677593 0.759836 0.393640 -0.041340 0.435170 18.186396 -7.057185 4.753921 -28.886955 3.975850 -54.717659 -3.431293 -12.252312 57.924673 -1.241279 -8.690048 1.406614 -0.137280 0.027890 0.239950 -2.692095 -5.881990 -9.500038 41.894091 -13.808058 53.419176 8.085224 1.053010 4.979448 1.144115 -1.137991 -16.541647 -8.143748 -4.900567 58.728229 -4.326090 -4.739660 -15.999210 6.283225 -25.657599 5.166019 16.493810 2.082516 -8.098443 -158.677139 -68.857440 144.764150 -2.571294 3.818364 0.904520 -0.092920 0.187780 0.062880 -7.944756 29.363939 8.874950 18.967797 12.709533 -19.616968 2.554098 62.958883 -0.371377 1.422465 -1.428184 -0.160090 0.244570 0.069280 -0.328240 
-0.185770 16.021000 -1.530940 10.749650 -14.589283 -2.754813 -15.757436 12.286467 4.464020 12.193514 -8.467447 -36.365919 -8.971556 14.833722 52.772549 0.470217 10.523875 0.812522 0.428910 -0.037980 0.511670 18.173053 -7.225021 4.673782 -29.289180 3.905403 -53.417021 -3.180777 -12.370003 57.888669 -1.253457 -8.699007 1.388585 -0.136900 -0.020520 0.249880 -2.676317 -5.852000 -9.442981 42.111096 -12.801714 51.892855 8.499545 1.543254 5.069821 1.110414 -0.134055 -16.820669 -5.851625 -6.096618 58.527883 -5.731350 -4.063090 -15.377600 6.043169 -25.773222 5.349662 17.141589 2.164178 -7.390876 -159.066606 -67.997453 145.011342 -2.565985 3.850091 0.914160 -0.107490 0.205900 0.057140 -7.756419 28.925314 9.245222 19.985830 12.150834 -19.197927 1.109753 61.872153 -1.045116 1.448344 -1.440329 -0.150580 0.209750 0.031610 -0.359240 
-0.195630 16.042280 -1.495460 10.995555 -12.893142 -2.987883 -15.742015 12.369729 4.414849 11.273932 -8.452153 -35.983059 -8.252078 14.416111 52.668169 0.407606 10.396359 0.853717 0.409810 -0.053630 0.507100 18.163411 -7.374829 4.576137 -30.057619 3.383313 -52.117279 -2.826609 -12.760278 57.791919 -1.254712 -8.765170 1.371631 -0.131020 -0.015570 0.240370 -2.660580 -5.793252 -9.412376 41.976238 -11.509264 49.793511 9.581773 2.057203 5.003734 0.932894 1.116439 -16.872256 -2.920022 -7.649686 57.971821 -7.190640 -3.459360 -15.235400 5.827536 -25.533078 5.363673 17.638854 1.824167 -6.438878 -159.162083 -66.927989 144.757679 -2.617969 3.816419 0.928430 -0.089660 0.200510 0.050730 -7.360325 27.920058 9.464955 21.009352 11.493436 -18.533479 -0.684561 60.844541 -1.775253 1.448112 -1.387084 -0.181430 0.229200 0.046910 -0.379890 
-0.205770 16.064050 -1.449350 11.097965 -11.229909 -3.064628 -15.715656 12.420761 4.379902 10.581594 -8.345035 -35.640241 -7.897278 14.200346 52.362840 0.411791 10.276693 0.901640 0.417050 -0.057960 0.525400 18.164319 -7.535371 4.481664 -30.846788 2.960368 -50.696332 -2.108124 -13.300605 57.557145 -1.258788 -8.832476 1.351508 -0.138770 -0.023510 0.250330 -2.680916 -5.661706 -9.385912 41.915930 -10.223208 47.319732 10.584752 2.568201 4.894461 0.597008 2.065777 -17.118428 -0.713305 -8.620791 57.517155 -7.652120 -2.986660 -13.878180 5.466317 -25.407133 5.550628 17.810433 1.554375 -5.549106 -159.912504 -66.040231 145.688273 -2.654761 3.838799 0.914850 -0.079590 0.199910 0.057760 -6.468334 27.116349 9.747637 21.783946 10.651634 -17.683736 -1.916871 59.323059 -2.077032 1.481096 -1.386395 -0.170670 0.204200 0.028850 -0.385270 
